<svg width="23" height="23" viewBox="0 0 23 23" fill="none" xmlns="http://www.w3.org/2000/svg">
<g clip-path="url(#clip0_948_1248)">
<path d="M8.27938 0H9.19938V1.84H8.27938V2.76H9.19938V4.6H8.27938V6.44H7.35938V0.92H8.27938V0Z" fill="black"/>
<path d="M11.96 0H12.88V2.76H11.96V0Z" fill="black"/>
<path d="M13.7998 0H15.6398V2.76H14.7198V1.84H13.7998V0Z" fill="black"/>
<path d="M0 0V6.44H6.44V0H0ZM5.52 5.52H0.92V0.92H5.52V5.52Z" fill="black"/>
<path d="M10.1191 0.919922H11.0391V1.83992H10.1191V0.919922Z" fill="black"/>
<path d="M16.5596 0V6.44H22.9996V0H16.5596ZM22.0796 5.52H17.4796V0.92H22.0796V5.52Z" fill="black"/>
<path d="M1.83984 1.83984H4.59984V4.59984H1.83984V1.83984Z" fill="black"/>
<path d="M18.4004 1.83984H21.1604V4.59984H18.4004V1.83984Z" fill="black"/>
<path d="M13.7998 2.75977H14.7198V3.67977H13.7998V2.75977Z" fill="black"/>
<path d="M10.1191 3.67969H11.0391V4.59969H10.1191V3.67969Z" fill="black"/>
<path d="M11.96 3.67969H13.8V6.43969H14.72V8.27969H13.8V7.35969H12.8796V4.59969H11.96V3.67969Z" fill="black"/>
<path d="M14.7197 3.67969H15.6401V6.43969H14.7197V3.67969Z" fill="black"/>
<path d="M9.19961 4.59961H10.1196V7.35961H9.19961V8.27961H8.27961V9.19961H7.35961V8.27961H4.59961V7.35961H8.27961V6.43961H9.19961V4.59961Z" fill="black"/>
<path d="M11.04 4.59961H11.96V6.43961H11.04V4.59961Z" fill="black"/>
<path d="M11.0392 7.35938H12.8789V8.27938H11.9592V9.19938H9.19922V8.27938H11.0392V7.35938Z" fill="black"/>
<path d="M15.6396 7.35938H16.5596V8.27938H15.6396V7.35938Z" fill="black"/>
<path d="M17.4805 7.35938H22.0805V8.27938H23.0005V10.1194H22.0805V9.19938H21.1605V8.27938H20.2405V10.1194H22.0805V11.0394H20.2405V11.9594H19.3205V8.27938H17.4805V7.35938Z" fill="black"/>
<path d="M12.8799 8.2793H13.8002V9.1993H12.8799V8.2793Z" fill="black"/>
<path d="M5.51953 9.19922H7.35953V10.1192H8.27953V11.0392H7.35953V11.9592H5.51953V11.0392H6.43953V10.1192H5.51953V9.19922Z" fill="black"/>
<path d="M8.2793 9.19922H9.1993V10.1192H8.2793V9.19922Z" fill="black"/>
<path d="M17.4805 9.19922H18.4005V10.1192H17.4805V9.19922Z" fill="black"/>
<path d="M4.59961 10.1191H5.51961V11.0395H4.59961V10.1191Z" fill="black"/>
<path d="M10.1191 10.1191H11.0391V11.9591H10.1191V10.1191Z" fill="black"/>
<path d="M12.8799 10.1191H13.8002V11.0395H12.8799V10.1191Z" fill="black"/>
<path d="M16.5596 10.1191H17.4799V11.0395H16.5596V10.1191Z" fill="black"/>
<path d="M8.2793 11.0391H9.1993V11.9591H10.1193V12.8787H11.0393V11.9591H11.9593V11.0391H12.8789V12.8787H11.9593V13.7991H11.0393V14.7191H10.1193V13.7991H9.1993V12.8787H8.2793V11.0391Z" fill="black"/>
<path d="M22.0801 11.0391H23.0001V13.7991H22.0801V11.0391Z" fill="black"/>
<path d="M0 12.8789H1.84V13.7993H0V12.8789Z" fill="black"/>
<path d="M12.8799 12.8789H13.8002V13.7993H12.8799V12.8789Z" fill="black"/>
<path d="M0 14.7207H2.76V15.6411H0V14.7207Z" fill="black"/>
<path d="M12.8799 14.7207H13.8002V15.6411H12.8799V14.7207Z" fill="black"/>
<path d="M22.0801 14.7207H23.0001V17.4811H22.0801V14.7207Z" fill="black"/>
<path d="M19.32 17.4794V16.5594H20.24V15.6394H19.32V13.7994H21.16V11.9594H20.24V12.8794H19.32V11.9594H18.4V14.7194H16.56V13.7994H17.48V12.879H15.64V10.119H14.72V11.0394H13.8V11.9594H14.72V13.7994H13.8V14.7194H14.72V15.6394H13.8V17.4794H14.72V18.3994H13.8V17.4794H12.8796V15.6394H11.04V16.5594H8.28V15.6394H9.2V13.7994H8.28V14.7194H4.6V13.7994H7.36V12.879H4.6V11.959H3.68V10.119H4.6V9.19938H2.76V7.35938H1.84V8.27938H0.92V10.1194H1.84V11.0394H0V11.9594H2.76V13.7994H3.68V15.6394H7.36V18.3994H11.04V17.4794H11.96V18.3994H12.88V19.3194H11.96V20.2394H11.04V21.1594H10.12V20.2394H9.2V19.3194H8.28V20.2394H7.36V21.1594H9.2V22.0794H8.28V22.9994H11.96V21.1594H12.88V22.9994H13.8V21.1594H15.64V20.2394H14.72V19.3194H18.4V20.2394H19.32V19.3194H20.24V18.3994H21.16V19.3194H22.08V17.4794H19.32ZM18.4 18.3994H15.64V15.6394H18.4V18.3994Z" fill="black"/>
<path d="M16.5596 16.5605H17.4799V17.4809H16.5596V16.5605Z" fill="black"/>
<path d="M0 16.5605V23.0005H6.44V16.5605H0ZM5.52 22.0805H0.92V17.4805H5.52V22.0805Z" fill="black"/>
<path d="M1.83984 18.4004H4.59984V21.1604H1.83984V18.4004Z" fill="black"/>
<path d="M11.04 18.4004H11.96V19.3204H11.04V18.4004Z" fill="black"/>
<path d="M10.1191 19.3203H11.0391V20.2407H10.1191V19.3203Z" fill="black"/>
<path d="M16.5596 20.2402H17.4796V21.1602H19.3196V20.2402H22.9996V21.1602H21.1596V22.0802H20.2396V23.0002H18.3996V22.0802H16.5596V23.0002H15.6396V21.1602H16.5596V20.2402Z" fill="black"/>
<path d="M22.0801 22.0801H23.0001V23.0001H22.0801V22.0801Z" fill="black"/>
</g>
<defs>
<clipPath id="clip0_948_1248">
<rect width="23" height="23" fill="white"/>
</clipPath>
</defs>
</svg>
