<svg width="60" height="53" viewBox="0 0 60 53" fill="none" xmlns="http://www.w3.org/2000/svg">
<g clip-path="url(#clip0_470_53311)">
<path d="M37.4859 6.36622L58.2331 37.8271C58.994 38.9809 59.4315 40.3184 59.4315 41.7463C59.4315 46.0826 55.4161 49.5982 50.4629 49.5982H29.7158L22.541 26.0159L29.7158 2.4338C33.0379 2.4338 35.936 4.01638 37.4859 6.36622Z" fill="#3B4145"/>
<path d="M21.9456 6.36622L1.19826 37.8271C0.437493 38.9809 0 40.3184 0 41.7463C0 46.0826 4.01533 49.5982 8.96855 49.5982H29.7156V2.4338C26.3935 2.4338 23.4954 4.01638 21.9456 6.36622Z" fill="#525A61"/>
<path d="M55.1266 39.3976L34.3795 7.93696C33.4444 6.5184 31.7272 5.6233 29.8701 5.57726L47.6147 46.4579H50.4631C53.4299 46.4579 55.8441 44.3443 55.8441 41.7468C55.8441 40.9218 55.5954 40.1094 55.1266 39.3976Z" fill="#FFB751"/>
<path d="M51.6365 39.398C52.0419 40.1099 52.2559 40.9222 52.2559 41.7472C52.2559 44.3446 50.1741 46.4583 47.6138 46.4583H8.968C6.00119 46.4583 3.58691 44.3446 3.58691 41.7472C3.58691 40.9222 3.83567 40.1099 4.30438 39.398L25.0515 7.93737C26.0129 6.48008 27.7995 5.57452 29.7151 5.57452C29.7665 5.57452 29.8179 5.57553 29.8694 5.57767C31.4633 5.63214 32.9354 6.5251 33.7377 7.93737L51.6365 39.398Z" fill="#FABE00"/>
<path d="M29.7158 35.9888V41.2233C31.3677 41.2233 32.7061 40.0518 32.7061 38.606C32.7061 37.1603 31.3677 35.9888 29.7158 35.9888Z" fill="#3B4145"/>
<path d="M29.7159 35.9888C30.046 35.9888 30.314 37.1603 30.314 38.6061C30.314 40.0519 30.046 41.2234 29.7159 41.2234C28.0641 41.2234 26.7256 40.0519 26.7256 38.6061C26.7256 37.1603 28.0641 35.9888 29.7159 35.9888Z" fill="#525A61"/>
<path d="M29.7158 13.4805V32.8484C31.3677 32.8484 32.7061 31.6758 32.7061 30.2311V16.0979C32.7061 14.6521 31.3677 13.4805 29.7158 13.4805Z" fill="#3B4145"/>
<path d="M29.7159 13.4805C30.046 13.4805 30.314 14.6521 30.314 16.0979V30.2311C30.314 31.6757 30.046 32.8484 29.7159 32.8484C28.0641 32.8484 26.7256 31.6758 26.7256 30.2311V16.0979C26.7256 14.6521 28.0641 13.4805 29.7159 13.4805Z" fill="#525A61"/>
</g>
<defs>
<clipPath id="clip0_470_53311">
<rect width="59.4313" height="52.0313" fill="white"/>
</clipPath>
</defs>
</svg>
