<svg width="30" height="22" viewBox="0 0 30 22" fill="none" xmlns="http://www.w3.org/2000/svg">
<path d="M23.0452 8.5C23.0452 6.24566 22.1497 4.08365 20.5556 2.48959C18.9615 0.89553 16.7995 0 14.5452 0C12.2909 0 10.1288 0.89553 8.53477 2.48959C6.94071 4.08365 6.04517 6.24566 6.04517 8.5C4.45387 8.4881 2.92301 9.1088 1.78935 10.2255C0.655699 11.3423 0.0121088 12.8637 0.000168847 14.455C-0.0117612 16.0463 0.608929 17.5772 1.72571 18.7108C2.84249 19.8445 4.36387 20.4881 5.95517 20.5C6.0866 20.5124 6.21917 20.4986 6.34524 20.4595C6.47131 20.4203 6.58839 20.3566 6.68972 20.272C6.79105 20.1874 6.87463 20.0836 6.93564 19.9666C6.99665 19.8495 7.03387 19.7215 7.04517 19.59C7.07036 19.3277 6.991 19.0661 6.82434 18.862C6.65769 18.6579 6.41721 18.5278 6.15517 18.5C5.57853 18.4446 5.0208 18.2647 4.52055 17.9725C4.0203 17.6804 3.58946 17.2832 3.25784 16.8082C2.92621 16.3332 2.70171 15.7919 2.59986 15.2216C2.49801 14.6513 2.52124 14.0657 2.66794 13.5053C2.81465 12.9449 3.08132 12.4231 3.44953 11.9759C3.81774 11.5286 4.27869 11.1667 4.80051 10.9152C5.32233 10.6636 5.89256 10.5284 6.47178 10.5189C7.05099 10.5093 7.62536 10.6257 8.15517 10.86C8.28015 10.9194 8.4168 10.9501 8.55517 10.95C8.78228 10.9467 9.00158 10.8662 9.17688 10.7218C9.35208 10.5773 9.47298 10.3774 9.51958 10.1551C9.56608 9.9327 9.53558 9.7012 9.43298 9.4985C9.33048 9.2958 9.16188 9.1341 8.95518 9.04C8.67138 8.9115 8.3769 8.8078 8.07517 8.73C8.07517 7.0061 8.75998 5.35279 9.97898 4.13381C11.198 2.91482 12.8513 2.23 14.5752 2.23C16.2991 2.23 17.9524 2.91482 19.1714 4.13381C20.3904 5.35279 21.0752 7.0061 21.0752 8.73C20.7735 8.8078 20.479 8.9115 20.1952 9.04C19.9885 9.1341 19.8199 9.2958 19.7173 9.4985C19.6148 9.7012 19.5842 9.9327 19.6308 10.1551C19.6774 10.3774 19.7982 10.5773 19.9735 10.7218C20.1488 10.8662 20.3681 10.9467 20.5952 10.95C20.7336 10.9501 20.8702 10.9194 20.9952 10.86C21.525 10.6257 22.0994 10.5093 22.6786 10.5189C23.2578 10.5284 23.828 10.6636 24.3499 10.9152C24.8717 11.1667 25.3326 11.5286 25.7008 11.9759C26.069 12.4231 26.3357 12.9449 26.4824 13.5053C26.6291 14.0657 26.6524 14.6513 26.5505 15.2216C26.4487 15.7919 26.2242 16.3332 25.8925 16.8082C25.5609 17.2832 25.1301 17.6804 24.6298 17.9725C24.1296 18.2647 23.5718 18.4446 22.9952 18.5C22.8637 18.5113 22.7357 18.5485 22.6186 18.6095C22.5016 18.6705 22.3977 18.7541 22.3132 18.8555C22.2286 18.9568 22.1649 19.0739 22.1257 19.1999C22.0866 19.326 22.0728 19.4586 22.0852 19.59C22.1077 19.8393 22.2229 20.0711 22.4081 20.2396C22.5932 20.4081 22.8349 20.501 23.0852 20.5H23.1752C24.7665 20.4828 26.2858 19.8341 27.3988 18.6967C28.5118 17.5593 29.1274 16.0263 29.1102 14.435C29.093 12.8437 28.4443 11.3244 27.3069 10.2114C26.1695 9.0984 24.6365 8.4828 23.0452 8.5Z" fill="#2680EA"/>
<path d="M13.7782 17.3448C13.2869 17.3448 12.8893 17.7424 12.8893 18.2337V20.1981C12.8893 20.6895 13.2869 21.087 13.7782 21.087C14.2695 21.087 14.6671 20.6895 14.6671 20.1981V18.2337C14.6671 17.7424 14.2695 17.3448 13.7782 17.3448Z" fill="#2680EA"/>
<path d="M17.3335 13.9143C16.8422 13.9143 16.4446 14.3119 16.4446 14.8032V20.1982C16.4446 20.6895 16.8422 21.087 17.3335 21.087C17.8248 21.087 18.2224 20.6895 18.2224 20.1982V14.8032C18.2224 14.3119 17.8248 13.9143 17.3335 13.9143Z" fill="#2680EA"/>
<path d="M20.8892 16.087C20.3978 16.087 20.0003 16.4846 20.0003 16.9759V20.1981C20.0003 20.6895 20.3978 21.087 20.8892 21.087C21.3805 21.087 21.778 20.6895 21.778 20.1981V16.9759C21.778 16.4846 21.3805 16.087 20.8892 16.087Z" fill="#2680EA"/>
<path d="M10.2225 18.7095C9.73159 18.7095 9.33359 19.107 9.33359 19.5984V20.1982C9.33359 20.6895 9.73159 21.0871 10.2225 21.0871C10.7134 21.0871 11.1114 20.6895 11.1114 20.1982V19.5984C11.1114 19.107 10.7134 18.7095 10.2225 18.7095Z" fill="#2680EA"/>
</svg>
